<svg width="72" height="24" viewBox="0 0 72 24" fill="none" xmlns="http://www.w3.org/2000/svg">
<path d="M19.6573 5.80092C18.6273 4.78233 17.2619 4.16064 15.8078 4.04815C14.3538 3.93566 12.9068 4.33979 11.7284 5.18754C10.4921 4.28054 8.9533 3.86926 7.42187 4.03652C5.89044 4.20379 4.48014 4.93718 3.47497 6.08901C2.46981 7.24083 1.94444 8.72554 2.00466 10.2441C2.06488 11.7627 2.70623 13.2024 3.79954 14.2733L9.83364 20.2346C10.3389 20.7251 11.0195 21 11.7284 21C12.4374 21 13.1179 20.7251 13.6232 20.2346L19.6573 14.2733C20.7918 13.1474 21.4286 11.6245 21.4286 10.0371C21.4286 8.44971 20.7918 6.9268 19.6573 5.80092ZM18.2872 12.9507L12.2531 18.9024C12.1845 18.9708 12.1027 19.0251 12.0127 19.0621C11.9226 19.0992 11.826 19.1183 11.7284 19.1183C11.6308 19.1183 11.5342 19.0992 11.4442 19.0621C11.3541 19.0251 11.2724 18.9708 11.2037 18.9024L5.1696 12.9219C4.40757 12.1536 3.98086 11.1215 3.98086 10.0467C3.98086 8.97186 4.40757 7.93977 5.1696 7.17145C5.94612 6.41525 6.99341 5.99123 8.08463 5.99123C9.17584 5.99123 10.2231 6.41525 10.9997 7.17145C11.09 7.26128 11.1975 7.33258 11.3159 7.38124C11.4343 7.4299 11.5613 7.45495 11.6895 7.45495C11.8178 7.45495 11.9448 7.4299 12.0632 7.38124C12.1816 7.33258 12.2891 7.26128 12.3794 7.17145C13.156 6.41525 14.2032 5.99123 15.2945 5.99123C16.3857 5.99123 17.433 6.41525 18.2095 7.17145C18.982 7.9297 19.4227 8.9562 19.4372 10.0311C19.4518 11.1059 19.039 12.1436 18.2872 12.9219V12.9507Z" fill="#359740"/>
<path d="M56.8867 21.3333C57.7151 21.3333 58.3867 20.6617 58.3867 19.8333C58.3867 19.0048 57.7151 18.3333 56.8867 18.3333C56.0582 18.3333 55.3867 19.0048 55.3867 19.8333C55.3867 20.6617 56.0582 21.3333 56.8867 21.3333Z" fill="#359740"/>
<path d="M66 21.3333C66.8284 21.3333 67.5 20.6617 67.5 19.8333C67.5 19.0048 66.8284 18.3333 66 18.3333C65.1716 18.3333 64.5 19.0048 64.5 19.8333C64.5 20.6617 65.1716 21.3333 66 21.3333Z" fill="#359740"/>
<path d="M70.0533 3.57991C69.9913 3.50343 69.9131 3.44165 69.8243 3.399C69.7356 3.35635 69.6385 3.33389 69.54 3.33324H55.66L56.0933 4.66658H68.6667L66.8867 12.6666H56.8867L53.84 3.01991C53.8071 2.91755 53.7498 2.82468 53.6732 2.74922C53.5966 2.67377 53.5029 2.61796 53.4 2.58658L50.6667 1.74658C50.5826 1.72075 50.4943 1.71173 50.4068 1.72003C50.3193 1.72833 50.2342 1.7538 50.1565 1.79496C49.9996 1.87811 49.8822 2.02017 49.83 2.18991C49.7779 2.35965 49.7953 2.54316 49.8784 2.70006C49.9615 2.85697 50.1036 2.97442 50.2733 3.02658L52.6667 3.75991L55.7267 13.4266L54.6333 14.3199L54.5467 14.4066C54.2762 14.7182 54.1229 15.1145 54.1132 15.527C54.1035 15.9395 54.2379 16.3425 54.4933 16.6666C54.6751 16.8875 54.906 17.0629 55.1676 17.1787C55.4292 17.2945 55.7143 17.3474 56 17.3332H67.1267C67.3035 17.3332 67.4731 17.263 67.5981 17.138C67.7231 17.013 67.7933 16.8434 67.7933 16.6666C67.7933 16.4898 67.7231 16.3202 67.5981 16.1952C67.4731 16.0701 67.3035 15.9999 67.1267 15.9999H55.8933C55.8166 15.9973 55.7418 15.9749 55.6762 15.9349C55.6106 15.895 55.5564 15.8388 55.5189 15.7717C55.4813 15.7047 55.4617 15.6292 55.4619 15.5523C55.4621 15.4755 55.4821 15.4001 55.52 15.3332L57.1267 13.9999H67.42C67.5741 14.0037 67.7248 13.9539 67.8463 13.8591C67.9679 13.7643 68.0528 13.6303 68.0867 13.4799L70.2 4.14658C70.2203 4.04719 70.2176 3.94448 70.1922 3.84629C70.1668 3.74809 70.1193 3.65698 70.0533 3.57991Z" fill="#359740"/>
</svg>
