<svg width="48" height="48" viewBox="0 0 48 48" fill="none" xmlns="http://www.w3.org/2000/svg">
<rect x="0.5" y="0.5" width="47" height="47" rx="7.5" stroke="#EFEFEF"/>
<path d="M20.8867 33.3334C21.7151 33.3334 22.3867 32.6618 22.3867 31.8334C22.3867 31.0049 21.7151 30.3334 20.8867 30.3334C20.0582 30.3334 19.3867 31.0049 19.3867 31.8334C19.3867 32.6618 20.0582 33.3334 20.8867 33.3334Z" fill="#359740"/>
<path d="M30 33.3334C30.8284 33.3334 31.5 32.6618 31.5 31.8334C31.5 31.0049 30.8284 30.3334 30 30.3334C29.1716 30.3334 28.5 31.0049 28.5 31.8334C28.5 32.6618 29.1716 33.3334 30 33.3334Z" fill="#359740"/>
<path d="M34.0533 15.58C33.9913 15.5036 33.9131 15.4418 33.8243 15.3991C33.7356 15.3565 33.6385 15.334 33.54 15.3334H19.66L20.0933 16.6667H32.6667L30.8867 24.6667H20.8867L17.84 15.02C17.8071 14.9177 17.7498 14.8248 17.6732 14.7493C17.5966 14.6739 17.5029 14.6181 17.4 14.5867L14.6667 13.7467C14.5826 13.7209 14.4943 13.7119 14.4068 13.7202C14.3193 13.7285 14.2342 13.7539 14.1565 13.7951C13.9996 13.8782 13.8822 14.0203 13.83 14.19C13.7779 14.3598 13.7953 14.5433 13.8784 14.7002C13.9615 14.8571 14.1036 14.9745 14.2733 15.0267L16.6667 15.76L19.7267 25.4267L18.6333 26.32L18.5467 26.4067C18.2762 26.7184 18.1229 27.1146 18.1132 27.5271C18.1035 27.9396 18.2379 28.3426 18.4933 28.6667C18.6751 28.8877 18.906 29.0631 19.1676 29.1788C19.4292 29.2946 19.7143 29.3475 20 29.3334H31.1267C31.3035 29.3334 31.4731 29.2631 31.5981 29.1381C31.7231 29.0131 31.7933 28.8435 31.7933 28.6667C31.7933 28.4899 31.7231 28.3203 31.5981 28.1953C31.4731 28.0703 31.3035 28 31.1267 28H19.8933C19.8166 27.9974 19.7418 27.975 19.6762 27.9351C19.6106 27.8951 19.5564 27.8389 19.5189 27.7719C19.4813 27.7048 19.4617 27.6293 19.4619 27.5525C19.4621 27.4757 19.4821 27.4002 19.52 27.3334L21.1267 26H31.42C31.5741 26.0038 31.7248 25.954 31.8463 25.8592C31.9679 25.7644 32.0528 25.6304 32.0867 25.48L34.2 16.1467C34.2203 16.0473 34.2176 15.9446 34.1922 15.8464C34.1668 15.7482 34.1193 15.6571 34.0533 15.58Z" fill="#359740"/>
</svg>
