<svg width="48" height="48" viewBox="0 0 48 48" fill="none" xmlns="http://www.w3.org/2000/svg">
<path d="M25 17.25C24.5858 17.25 24.25 17.5858 24.25 18C24.25 18.4142 24.5858 18.75 25 18.75L31 18.75C31.4142 18.75 31.75 18.4142 31.75 18C31.75 17.5858 31.4142 17.25 31 17.25H25Z" fill="#70737C"/>
<path d="M17 23.25C16.5858 23.25 16.25 23.5858 16.25 24C16.25 24.4142 16.5858 24.75 17 24.75H31C31.4142 24.75 31.75 24.4142 31.75 24C31.75 23.5858 31.4142 23.25 31 23.25H17Z" fill="#70737C"/>
<path d="M21 29.25C20.5858 29.25 20.25 29.5858 20.25 30C20.25 30.4142 20.5858 30.75 21 30.75L31 30.75C31.4142 30.75 31.75 30.4142 31.75 30C31.75 29.5858 31.4142 29.25 31 29.25L21 29.25Z" fill="#70737C"/>
</svg>
